<?xml version="1.0" standalone="no"?>
<!DOCTYPE svg PUBLIC "-//W3C//DTD SVG 20010904//EN"
 "http://www.w3.org/TR/2001/REC-SVG-20010904/DTD/svg10.dtd">
<svg version="1.0" xmlns="http://www.w3.org/2000/svg"
 width="624.000000pt" height="624.000000pt" viewBox="0 0 624.000000 624.000000"
 preserveAspectRatio="xMidYMid meet">
<metadata>
Created by potrace 1.11, written by Peter Selinger 2001-2013
</metadata>
<g transform="translate(0.000000,624.000000) scale(0.100000,-0.100000)"
fill="#000000" stroke="none">
<path d="M2740 5915 c-394 -48 -771 -181 -1100 -388 -91 -57 -249 -171 -261
-189 -3 -4 -20 -19 -39 -33 -39 -29 -139 -125 -229 -220 -295 -313 -515 -723
-621 -1161 -121 -495 -94 -1020 75 -1504 57 -161 192 -429 291 -577 424 -630
1053 -1028 1814 -1146 194 -30 556 -29 753 1 485 76 914 264 1287 565 99 81
300 282 380 382 570 710 736 1660 440 2519 -93 269 -256 570 -415 765 -200
245 -428 449 -672 603 -117 74 -361 193 -497 243 -126 46 -369 108 -516 130
-148 23 -539 29 -690 10z m472 -226 c194 -13 415 -57 588 -115 127 -43 396
-162 431 -191 8 -7 18 -13 22 -13 8 0 241 -157 276 -185 218 -178 419 -406
551 -625 30 -50 64 -105 75 -123 33 -52 130 -283 169 -404 144 -449 152 -937
22 -1390 -118 -408 -329 -762 -631 -1053 -134 -129 -138 -133 -162 -150 -11
-8 -65 -47 -119 -86 -232 -168 -498 -294 -769 -364 -240 -63 -343 -75 -620
-75 -227 0 -311 7 -470 39 -379 76 -754 253 -1045 493 -79 65 -260 245 -324
323 -236 282 -409 630 -490 980 -53 231 -51 218 -62 456 -22 469 109 968 354
1354 20 30 40 64 46 75 36 66 249 318 347 410 399 375 922 604 1469 644 157
12 175 12 342 0z"/>
<path d="M2257 4566 l-54 -44 -64 15 c-37 8 -81 12 -104 8 -74 -11 -183 -97
-224 -176 -20 -38 -40 -56 -105 -95 -56 -35 -89 -63 -113 -97 -50 -75 -59
-114 -44 -206 l13 -78 -28 -43 c-22 -32 -29 -57 -32 -107 -3 -36 0 -74 6 -86
6 -12 15 -38 22 -57 33 -106 145 -235 335 -385 33 -26 67 -56 75 -65 8 -10 47
-34 85 -53 59 -30 98 -64 251 -219 141 -142 198 -207 255 -293 59 -90 127
-182 192 -260 4 -5 51 -68 104 -140 53 -71 119 -155 147 -185 28 -30 63 -71
78 -90 15 -19 41 -53 58 -75 18 -22 63 -80 100 -130 71 -94 147 -181 266 -303
51 -52 76 -71 87 -66 24 9 21 47 -4 70 -12 10 -32 35 -44 54 -13 19 -60 75
-105 124 -45 50 -119 140 -164 200 -45 61 -120 159 -167 218 -46 58 -113 145
-149 193 -36 48 -74 99 -85 114 -113 148 -327 433 -353 470 -74 103 -324 341
-359 341 -29 0 -242 161 -379 288 -130 119 -144 140 -169 260 -16 77 -10 121
22 158 23 27 24 32 17 131 -10 158 16 211 128 253 53 19 108 66 108 92 0 5 16
33 35 61 24 37 50 60 89 82 55 29 56 29 123 16 139 -27 135 -27 171 18 29 36
38 41 76 41 137 0 233 -45 351 -164 74 -75 88 -96 181 -276 56 -107 117 -218
136 -246 34 -53 466 -504 482 -504 12 0 106 -84 251 -225 66 -64 152 -140 190
-169 39 -29 130 -116 203 -192 73 -77 174 -177 225 -223 51 -46 117 -107 147
-136 73 -68 90 -77 121 -62 13 7 25 20 27 29 4 19 -7 31 -93 103 -73 62 -210
194 -520 502 -133 131 -252 244 -265 252 -14 7 -47 39 -74 70 -27 31 -95 96
-150 144 -338 297 -459 430 -566 627 -104 191 -201 340 -221 340 -6 0 -13 9
-17 19 -9 24 -131 125 -186 154 -72 37 -109 47 -188 47 -76 0 -78 0 -131 -44z"/>
<path d="M2388 4421 c-15 -17 -29 -48 -33 -70 -6 -35 -3 -46 27 -87 39 -55 99
-86 138 -72 34 11 70 67 70 107 0 42 -34 103 -69 124 -15 9 -46 19 -68 23 -36
5 -42 3 -65 -25z m111 -67 c35 -30 39 -52 13 -84 -18 -22 -19 -22 -44 -6 -35
23 -53 68 -38 95 14 28 32 26 69 -5z"/>
<path d="M2015 4370 c-31 -12 -47 -36 -56 -86 -11 -57 5 -98 55 -142 41 -36
58 -39 107 -18 44 18 65 42 77 88 15 55 -17 114 -78 145 -48 24 -72 27 -105
13z m96 -81 c22 -15 29 -28 29 -53 0 -65 -62 -79 -104 -23 -29 37 -31 49 -16
78 14 25 54 25 91 -2z"/>
<path d="M1794 4120 c-40 -16 -74 -68 -74 -113 1 -55 17 -83 70 -118 60 -40
87 -38 138 13 37 37 42 46 42 88 0 52 -8 66 -64 109 -39 31 -72 37 -112 21z
m76 -75 c24 -12 30 -22 30 -48 0 -18 -5 -38 -12 -45 -37 -37 -117 13 -103 65
11 45 36 53 85 28z"/>
<path d="M2186 4020 c-51 -20 -106 -65 -106 -86 0 -6 -7 -25 -15 -40 -29 -56
-12 -221 34 -327 20 -47 108 -149 145 -169 28 -15 137 -27 163 -17 35 13 143
98 210 166 43 43 66 75 74 105 7 24 17 48 21 55 6 7 4 37 -3 74 -21 108 -92
168 -266 225 -118 39 -184 43 -257 14z m184 -60 c72 -12 189 -64 234 -105 64
-58 47 -223 -25 -261 -15 -7 -48 -31 -73 -53 -24 -21 -70 -53 -101 -71 -45
-26 -64 -31 -93 -27 -51 9 -122 82 -162 169 -30 65 -32 76 -27 147 3 42 14 98
24 125 15 40 25 52 58 67 46 21 75 23 165 9z"/>
<path d="M1674 3761 c-84 -51 -57 -186 45 -230 80 -34 125 -25 160 33 25 40
22 84 -11 148 -34 64 -129 88 -194 49z m121 -63 c35 -16 55 -86 29 -105 -38
-28 -106 -7 -130 38 -18 35 -18 44 2 63 18 19 63 21 99 4z"/>
</g>
</svg>
